<?xml version="1.0" standalone="no"?><svg xmlns="http://www.w3.org/2000/svg" viewBox="0 0 1440 320"><path fill="#00bcd4" fill-opacity="1" d="M0,224L30,208C60,192,120,160,180,170.7C240,181,300,235,360,261.3C420,288,480,288,540,282.7C600,277,660,267,720,229.3C780,192,840,128,900,122.7C960,117,1020,171,1080,192C1140,213,1200,203,1260,170.7C1320,139,1380,85,1410,58.7L1440,32L1440,320L1410,320C1380,320,1320,320,1260,320C1200,320,1140,320,1080,320C1020,320,960,320,900,320C840,320,780,320,720,320C660,320,600,320,540,320C480,320,420,320,360,320C300,320,240,320,180,320C120,320,60,320,30,320L0,320Z"></path></svg>