<?xml version="1.0" standalone="no"?><svg xmlns="http://www.w3.org/2000/svg" viewBox="0 0 1440 320"><path fill="#009688" fill-opacity="1" d="M0,0L24,5.3C48,11,96,21,144,26.7C192,32,240,32,288,53.3C336,75,384,117,432,122.7C480,128,528,96,576,101.3C624,107,672,149,720,181.3C768,213,816,235,864,202.7C912,171,960,85,1008,64C1056,43,1104,85,1152,106.7C1200,128,1248,128,1296,128C1344,128,1392,128,1416,128L1440,128L1440,0L1416,0C1392,0,1344,0,1296,0C1248,0,1200,0,1152,0C1104,0,1056,0,1008,0C960,0,912,0,864,0C816,0,768,0,720,0C672,0,624,0,576,0C528,0,480,0,432,0C384,0,336,0,288,0C240,0,192,0,144,0C96,0,48,0,24,0L0,0Z"></path></svg>